<?xml version="1.0" standalone="no"?>
<!DOCTYPE svg PUBLIC "-//W3C//DTD SVG 20010904//EN"
 "http://www.w3.org/TR/2001/REC-SVG-20010904/DTD/svg10.dtd">
<svg version="1.0" xmlns="http://www.w3.org/2000/svg"
 width="612.000000pt" height="612.000000pt" viewBox="0 0 612.000000 612.000000"
 preserveAspectRatio="xMidYMid meet">
<metadata>
Created by potrace 1.11, written by Peter Selinger 2001-2013
</metadata>
<g transform="translate(0.000000,612.000000) scale(0.100000,-0.100000)"
fill="#000000" stroke="none">
<path d="M0 3060 l0 -3060 3060 0 3060 0 0 3060 0 3060 -3060 0 -3060 0 0
-3060z m5076 1783 c7 -10 14 -32 14 -48 0 -28 -14 -42 -145 -144 -80 -62 -157
-118 -171 -125 -24 -13 -152 -117 -633 -516 -130 -108 -307 -254 -393 -324
l-157 -129 28 -36 c272 -348 1605 -2049 1654 -2109 69 -86 74 -99 57 -133 -10
-19 -29 -19 -763 -19 l-752 1 -687 889 -686 889 -3 252 -3 253 124 100 c69 55
431 348 805 650 l680 551 120 6 c66 3 295 6 509 7 360 2 390 1 402 -15z
m-2882 -9 c3 -9 6 -814 6 -1790 l0 -1774 -745 0 -745 0 2 1773 c3 1486 5 1777
17 1790 12 16 76 17 736 17 650 0 723 -2 729 -16z"/>
</g>
</svg>
